<svg width="75" height="75" viewBox="0 0 75 75" fill="none" xmlns="http://www.w3.org/2000/svg">
<path fill-rule="evenodd" clip-rule="evenodd" d="M34.7641 1.19245C33.8816 2.0705 33.5106 3.96621 33.5106 7.60454C33.5106 13.8747 32.3633 13.9944 30.0582 7.96385C28.3683 3.54186 26.3489 2.05464 23.163 2.88272C20.1279 3.67194 19.7314 6.55674 21.967 11.5808C23.0617 14.0412 23.7782 16.2312 23.5596 16.4485C23.3418 16.6659 21.3774 15.1826 19.1952 13.1537C14.7918 9.05845 13.512 8.72293 11.1702 11.0509C8.72793 13.4789 9.22739 15.5054 13.3644 19.9481C15.4484 22.1872 16.6157 23.8236 15.9574 23.5856C7.39149 20.4874 6.3008 20.232 5.03218 21.0276C0.589627 23.8132 2.14787 27.8942 8.57713 30.311C10.8814 31.1771 12.766 32.1956 12.766 32.5732C12.766 32.9507 10.4577 33.26 7.63644 33.26C1.97074 33.26 0 34.3959 0 37.6606C0 40.6192 3.11569 42.1857 8.35372 41.8613C13.8989 41.5187 14.1806 42.8314 8.97606 44.762C2.50293 47.1638 1.09707 49.3101 3.6359 52.9128C5.24282 55.1939 7.22154 55.1376 12.162 52.6708C14.3713 51.5675 16.3628 50.8481 16.5878 51.0718C16.8128 51.2955 15.3263 53.2538 13.2854 55.4232C9.2266 59.7373 8.73511 61.7734 11.1702 64.1942C13.512 66.5222 14.7918 66.1867 19.1952 62.0915C21.3774 60.0625 23.3418 58.58 23.5612 58.7974C23.7798 59.0155 23.0362 61.1976 21.9088 63.6461C19.6907 68.4631 19.9819 70.4469 23.1566 72.1355C25.6045 73.438 27.8178 71.7588 30.0543 66.9021C31.1418 64.54 32.3649 62.6078 32.771 62.6078C33.1779 62.6078 33.5106 64.92 33.5106 67.7453C33.5106 72.3227 33.7237 73.0215 35.4662 74.1566C39.612 76.8566 42.9247 72.7733 41.9314 66.1883C41.1686 61.1285 43.1314 61.4022 45.0183 66.6182C46.6396 71.0996 48.9774 73.1056 51.7412 72.387C54.8641 71.5756 55.2957 68.7225 53.1072 63.3677C52.0452 60.7684 51.3822 58.6419 51.6351 58.6419C51.888 58.6419 53.8221 60.2481 55.9332 62.2112C60.1364 66.1192 61.0125 66.3842 63.6519 64.5456C66.5585 62.5222 65.937 59.6096 61.6835 55.3161C59.6258 53.2395 58.1378 51.3454 58.3763 51.1083C58.6149 50.8703 60.7476 51.5731 63.1157 52.6685C68.2612 55.0496 69.5457 55.1376 71.2859 53.2253C74.1774 50.0494 72.3925 46.6641 66.9758 45.0507C65.2348 44.532 63.4117 43.6301 62.925 43.0463C61.9053 41.8256 61.9915 41.8066 67.6891 41.9779C72.4787 42.1223 75 40.5978 75 37.5559C75 34.3967 72.979 33.26 67.3636 33.26C64.5423 33.26 62.234 32.9515 62.234 32.5747C62.234 32.198 63.9391 31.2565 66.0239 30.4831C68.1088 29.7098 70.4417 28.5351 71.2101 27.8727C74.033 25.4385 72.1213 20.5485 68.3609 20.5866C67.4043 20.5961 65.0569 21.31 63.1444 22.1729C57.8585 24.5572 57.5537 24.0972 61.666 19.9473C65.937 15.6355 66.5625 12.7253 63.6519 10.6995C61.0021 8.8538 60.138 9.12428 55.8048 13.1537C53.6226 15.1826 51.612 16.6191 51.3367 16.3454C51.0614 16.0726 51.1899 15.3936 51.6215 14.8376C53.2245 12.7745 55.0915 6.86767 54.6128 5.37014C54.3415 4.51827 53.2037 3.47523 52.0843 3.05246C49.1274 1.93487 46.6332 3.89086 44.9266 8.6674C42.9311 14.2522 41.7239 13.7684 41.8141 7.42052C41.8755 3.12068 41.6162 2.00625 40.3396 1.07506C38.3186 -0.397885 36.3223 -0.355847 34.7641 1.19245ZM44.5165 28.3851C48.0231 30.867 49.9859 36.3471 48.7891 40.3162C45.975 49.6551 35.5245 52.0093 28.7737 44.8255C25.9005 41.7685 25.4721 34.541 27.9766 31.3858C32.3378 25.8914 39.2282 24.6413 44.5165 28.3851Z" fill="#FFBDAB"/>
</svg>
