<svg width="136" height="136" viewBox="0 0 136 136" fill="none" xmlns="http://www.w3.org/2000/svg">
<g filter="url(#filter0_d_265_5116)">
<path fill-rule="evenodd" clip-rule="evenodd" d="M63.1848 3.09871C61.6317 4.64408 60.9787 7.98053 60.9787 14.384C60.9787 25.4194 58.9594 25.6302 54.9025 15.0164C51.9283 7.23367 48.3741 4.61616 42.7669 6.07359C37.4251 7.46261 36.7272 12.5399 40.662 21.3821C42.5886 25.7125 43.8496 29.5669 43.4648 29.9494C43.0815 30.3319 39.6242 27.7214 35.7836 24.1504C28.0335 16.9429 25.7811 16.3524 21.6596 20.4496C17.3611 24.7228 18.2402 28.2896 25.5213 36.1086C29.1892 40.0495 31.2436 42.9295 30.0851 42.5107C15.009 37.0579 13.0894 36.6083 10.8566 38.0085C3.03774 42.9113 5.78026 50.0937 17.0957 54.3473C21.1512 55.8718 24.4681 57.6643 24.4681 58.3288C24.4681 58.9932 20.4056 59.5377 15.4401 59.5377C5.46851 59.5377 2 61.5368 2 67.2827C2 72.4898 7.48362 75.2469 16.7026 74.6759C26.4621 74.0729 26.9578 76.3832 17.7979 79.7811C6.40515 84.0082 3.93085 87.7858 8.39919 94.1264C11.2274 98.1413 14.7099 98.0422 23.4051 93.7007C27.2934 91.7588 30.7985 90.4927 31.1945 90.8863C31.5905 91.28 28.9743 94.7267 25.3823 98.5448C18.2388 106.138 17.3738 109.721 21.6596 113.982C25.7811 118.079 28.0335 117.489 35.7836 110.281C39.6242 106.71 43.0815 104.101 43.4677 104.483C43.8524 104.867 42.5437 108.708 40.5594 113.017C36.6556 121.495 37.1682 124.986 42.7557 127.959C47.064 130.251 50.9594 127.295 54.8955 118.748C56.8095 114.59 58.9622 111.19 59.677 111.19C60.3931 111.19 60.9787 115.259 60.9787 120.232C60.9787 128.288 61.3537 129.518 64.4205 131.516C71.7171 136.268 77.5475 129.081 75.7992 117.491C74.4568 108.586 77.9112 109.068 81.2323 118.248C84.0857 126.135 88.2002 129.666 93.0646 128.401C98.5608 126.973 99.3205 121.952 95.4686 112.527C93.5996 107.952 92.4326 104.21 92.8778 104.21C93.3229 104.21 96.7268 107.037 100.443 110.492C107.84 117.37 109.382 117.836 114.027 114.6C119.143 111.039 118.049 105.913 110.563 98.3563C106.941 94.7016 104.322 91.3679 104.742 90.9505C105.162 90.5317 108.916 91.7686 113.084 93.6965C122.14 97.8873 124.401 98.0422 127.463 94.6765C132.552 89.0869 129.411 83.1287 119.877 80.2893C116.813 79.3763 113.605 77.789 112.748 76.7616C110.953 74.6131 111.105 74.5796 121.133 74.8811C129.563 75.1352 134 72.4521 134 67.0984C134 61.5382 130.443 59.5377 120.56 59.5377C115.594 59.5377 111.532 58.9946 111.532 58.3315C111.532 57.6684 114.533 56.0114 118.202 54.6503C121.871 53.2892 125.977 51.2217 127.33 50.056C132.298 45.7717 128.933 37.1654 122.315 37.2324C120.631 37.2491 116.5 38.5055 113.134 40.0244C103.831 44.2208 103.295 43.4111 110.532 36.1072C118.049 28.5185 119.15 23.3966 114.027 19.8312C109.364 16.5827 107.843 17.0587 100.216 24.1504C96.3758 27.7214 92.8371 30.2496 92.3526 29.7679C91.8681 29.2877 92.0942 28.0927 92.8539 27.1141C95.6751 23.4831 98.961 13.0871 98.1185 10.4515C97.641 8.95215 95.6386 7.1164 93.6684 6.37233C88.4642 4.40537 84.0745 7.84791 81.0708 16.2546C77.5588 26.0839 75.4341 25.2323 75.5928 14.0601C75.7009 6.49239 75.2446 4.53101 72.9977 2.8921C69.4408 0.299723 65.9273 0.373709 63.1848 3.09871ZM80.349 50.9578C86.5207 55.3259 89.9752 64.9709 87.8688 71.9565C82.916 88.3931 64.5231 92.5364 52.6417 79.8928C47.5849 74.5126 46.8309 61.7922 51.2388 56.2389C58.9145 46.5688 71.0416 44.3687 80.349 50.9578Z" fill="#ECE345"/>
</g>
<defs>
<filter id="filter0_d_265_5116" x="0" y="0" width="136" height="136" filterUnits="userSpaceOnUse" color-interpolation-filters="sRGB">
<feFlood flood-opacity="0" result="BackgroundImageFix"/>
<feColorMatrix in="SourceAlpha" type="matrix" values="0 0 0 0 0 0 0 0 0 0 0 0 0 0 0 0 0 0 127 0" result="hardAlpha"/>
<feOffset dy="1"/>
<feGaussianBlur stdDeviation="1"/>
<feComposite in2="hardAlpha" operator="out"/>
<feColorMatrix type="matrix" values="0 0 0 0 0 0 0 0 0 0 0 0 0 0 0 0 0 0 0.15 0"/>
<feBlend mode="normal" in2="BackgroundImageFix" result="effect1_dropShadow_265_5116"/>
<feBlend mode="normal" in="SourceGraphic" in2="effect1_dropShadow_265_5116" result="shape"/>
</filter>
</defs>
</svg>
