<svg width="74" height="75" viewBox="0 0 74 75" fill="none" xmlns="http://www.w3.org/2000/svg">
<path d="M1.08983 27.1292L11.6574 22.7953L9.14276 11.8487L19.8549 12.828L23.0291 2.09105L31.9449 7.63592L39.4192 0L45.7074 8.53893L55.2574 4.01179L57.1675 14.7309L67.0847 15.549L64.7033 25.7911L74 31.2034L66.6209 38.8062L72.7197 47.7394L62.6615 52.3339L64.1254 62.661L54.0189 62.2372L50.3974 72.2541L40.783 66.8428L34.3272 75L28.1974 66.2965L18.4879 70.6602L16.8635 59.8417L6.15463 59.8464L9.29457 48.3552L0 43.5989L7.02813 35.5709L1.08983 27.1292Z" fill="#ECE345"/>
<path fill-rule="evenodd" clip-rule="evenodd" d="M41.1329 31.3088C40.0656 32.0372 40.7975 34.4789 42.095 34.5185C43.2138 34.5526 43.6631 33.2022 42.9206 32.0371C42.3343 31.1172 41.7578 30.8823 41.1329 31.3088ZM29.0766 36.3783C28.1838 36.6584 28.0309 38.0394 28.7775 39.0805C29.6506 40.2985 30.972 39.9094 30.9998 38.426C31.0229 37.1899 29.9912 36.0914 29.0766 36.3783ZM44.3776 38.4698C42.7329 41.2633 40.1304 43.1139 36.7418 43.9001C34.8698 44.3343 34.5189 44.3426 32.7194 43.9949C29.7321 43.4182 29.7624 43.4165 29.7436 44.1456C29.7293 44.7019 29.8866 44.828 30.9569 45.1201C35.3399 46.3154 40.2194 45.0383 43.4236 41.8572C44.9618 40.3299 46.5603 37.7336 46.2752 37.2254C45.9058 36.5666 45.2418 37.0019 44.3776 38.4698Z" fill="#635770"/>
</svg>
