<svg width="156" height="154" viewBox="0 0 156 154" fill="none" xmlns="http://www.w3.org/2000/svg">
<g filter="url(#filter0_d_265_4884)">
<path d="M4.23856 55.2583L25.9449 46.5905L20.7797 24.6974L42.783 26.6559L49.3029 5.18211L67.6165 16.2718L82.9692 1L95.8854 18.0779L115.502 9.02358L119.425 30.4618L139.796 32.0979L134.904 52.5822L154 63.4069L138.843 78.6124L151.37 96.4788L130.71 105.668L133.717 126.322L112.958 125.474L105.519 145.508L85.7704 134.686L72.51 151L59.919 133.593L39.9752 142.32L36.6386 120.683L14.642 120.693L21.0915 97.7104L2 88.1978L16.4362 72.1418L4.23856 55.2583Z" fill="white"/>
<path fill-rule="evenodd" clip-rule="evenodd" d="M86.4756 63.6178C84.2833 65.0746 85.7867 69.9578 88.4517 70.037C90.7498 70.1052 91.6727 67.4044 90.1476 65.0743C88.9432 63.2344 87.7592 62.7646 86.4756 63.6178ZM61.7113 73.7567C59.8773 74.3169 59.5633 77.0789 61.0969 79.161C62.8904 81.5971 65.6045 80.8188 65.6615 77.8521C65.709 75.3799 63.5898 73.1829 61.7113 73.7567ZM93.1403 77.9396C89.7619 83.5266 84.4164 87.228 77.456 88.8002C73.6107 89.6686 72.8899 89.6852 69.1938 88.99C63.0577 87.8364 63.1199 87.8331 63.0814 89.2913C63.052 90.4039 63.375 90.6561 65.5734 91.2402C74.5763 93.6308 84.5991 91.0766 91.1808 84.7145C94.3402 81.6599 97.6237 76.4672 97.038 75.4508C96.2793 74.1332 94.9153 75.004 93.1403 77.9396Z" fill="#635770"/>
</g>
<defs>
<filter id="filter0_d_265_4884" x="0" y="0" width="156" height="154" filterUnits="userSpaceOnUse" color-interpolation-filters="sRGB">
<feFlood flood-opacity="0" result="BackgroundImageFix"/>
<feColorMatrix in="SourceAlpha" type="matrix" values="0 0 0 0 0 0 0 0 0 0 0 0 0 0 0 0 0 0 127 0" result="hardAlpha"/>
<feOffset dy="1"/>
<feGaussianBlur stdDeviation="1"/>
<feComposite in2="hardAlpha" operator="out"/>
<feColorMatrix type="matrix" values="0 0 0 0 0 0 0 0 0 0 0 0 0 0 0 0 0 0 0.15 0"/>
<feBlend mode="normal" in2="BackgroundImageFix" result="effect1_dropShadow_265_4884"/>
<feBlend mode="normal" in="SourceGraphic" in2="effect1_dropShadow_265_4884" result="shape"/>
</filter>
</defs>
</svg>
