<svg width="74" height="75" viewBox="0 0 74 75" fill="none" xmlns="http://www.w3.org/2000/svg">
<path d="M44.7645 10.6936L50.9926 17.0057L15.9595 52.5115L9.73141 46.1994L44.7645 10.6936Z" fill="#FFBDAB"/>
<path d="M50.9926 17.0057L57.2207 23.3179L22.1876 58.8236L15.9595 52.5115L50.9926 17.0057Z" fill="#ECE345"/>
<path d="M57.2207 23.3179L63.4488 29.63L28.4157 65.1358L22.1876 58.8236L57.2207 23.3179Z" fill="#FFBDAB"/>
<path d="M9.73141 46.1994L0 74.9985L28.4157 65.1358L9.73141 46.1994Z" fill="white"/>
<path d="M0.00148758 75L3.57629 64.4207L10.4399 71.377L0.00148758 75Z" fill="#ECE345"/>
<path d="M48.6571 6.74849L67.3414 25.6849L63.4488 29.63L44.7645 10.6936L48.6571 6.74849Z" fill="white"/>
<path d="M53.4182 1.92313C55.9482 -0.641045 60.0502 -0.641045 62.5802 1.92313L72.1025 11.5738C74.6325 14.138 74.6325 18.2954 72.1025 20.8596L67.3414 25.6849L48.6571 6.74849L53.4182 1.92313Z" fill="#FFBDAB"/>
</svg>
