<svg width="98" height="50" viewBox="0 0 98 50" fill="none" xmlns="http://www.w3.org/2000/svg">
<path fill-rule="evenodd" clip-rule="evenodd" d="M0 49.2948C0 22.4591 21.7546 0.70459 48.5902 0.70459C75.4258 0.70459 97.1803 22.4591 97.1803 49.2948H0ZM30.0391 49.2943C30.0391 39.048 38.3453 30.7417 48.5917 30.7417C58.838 30.7417 67.1443 39.048 67.1443 49.2943H30.0391Z" fill="#FFBDAB"/>
<path fill-rule="evenodd" clip-rule="evenodd" d="M9.71875 49.2955C9.71875 27.827 27.1224 10.4233 48.5909 10.4233C70.0594 10.4233 87.463 27.827 87.463 49.2955H9.71875ZM30.0391 49.2953C30.0391 39.049 38.3453 30.7427 48.5917 30.7427C58.838 30.7427 67.1443 39.049 67.1443 49.2953H30.0391Z" fill="white"/>
<path fill-rule="evenodd" clip-rule="evenodd" d="M19.4375 49.2952C19.4375 33.1938 32.4902 20.1411 48.5916 20.1411C64.693 20.1411 77.7457 33.1938 77.7457 49.2952H67.1443C67.1442 39.0489 58.838 30.7427 48.5917 30.7427C38.3454 30.7427 30.0391 39.0489 30.0391 49.2952H19.4375Z" fill="#ECE345"/>
</svg>
