<svg width="75" height="60" viewBox="0 0 75 60" fill="none" xmlns="http://www.w3.org/2000/svg">
<path fill-rule="evenodd" clip-rule="evenodd" d="M28.7089 0.178744C26.9469 0.603811 26.373 1.24725 24.0131 5.44381L22.2721 8.53943L19.8743 8.53967H17.4767L17.0659 7.60872C16.3941 6.08605 15.7802 5.83526 12.4474 5.7213C10.8463 5.66671 9.04996 5.69484 8.45539 5.784C7.03405 5.99713 6.0075 6.87564 5.68542 8.15441C5.47467 8.9912 5.26035 9.24509 4.36182 9.72165C3.06302 10.4106 1.43499 12.1715 0.66686 13.7177L0.100899 14.8573L0.0267563 31.3069C-0.0507237 48.5382 -0.023546 49.1003 1.00491 51.5709C2.45653 55.0577 5.13495 57.6727 8.9217 59.3L10.3521 59.9148L36.5761 59.9835C55.1012 60.0321 63.115 59.9749 63.8729 59.7892C65.7603 59.3267 68.3331 57.9276 69.8088 56.5613C71.6864 54.8229 72.8813 52.9757 73.6957 50.5519L74.3625 48.568V34.3717C74.3625 18.7305 74.3839 18.9906 72.8458 16.0493C72.4138 15.223 71.3427 13.8593 70.3097 12.8206C67.4799 9.97436 64.8391 8.86627 60.1827 8.57114L57.8037 8.42047L56.0965 5.44047C53.801 1.43392 52.8996 0.434069 51.3538 0.18065C49.8922 -0.0589421 29.7014 -0.0608482 28.7089 0.178744ZM13.3316 10.8042C14.4435 11.3792 15.296 12.6933 15.4245 14.0303C15.5635 15.4773 15.1983 16.4226 14.141 17.3507C12.4388 18.8455 10.4055 18.8407 8.69379 17.3378C6.72436 15.6085 7.07267 12.303 9.37203 10.901C10.2827 10.3455 12.347 10.295 13.3316 10.8042ZM44.0361 12.0165C48.0617 12.844 51.6711 14.908 54.674 18.1C56.1261 19.6436 56.7485 20.5581 57.7963 22.6873C59.3209 25.7855 59.7793 27.3985 59.9758 30.3533C60.33 35.687 58.3871 41.0031 54.6017 45.0563C51.9517 47.894 48.9819 49.6822 45.0767 50.792C42.6484 51.4819 37.6537 51.5232 35.1457 50.8738C31.733 49.9903 27.7541 47.5824 25.2905 44.9097C16.2384 35.0893 19.5975 18.9837 31.8636 13.394C35.5488 11.7147 40.0751 11.2024 44.0361 12.0165ZM37.8756 17.8382C32.9631 18.6121 28.6076 22.3104 26.8804 27.1732C26.1594 29.203 26.1027 33.4997 26.7707 35.4789C28.2395 39.8311 31.4543 43.1994 35.4601 44.5836C37.6944 45.3558 42.5416 45.357 44.6552 44.586C50.5654 42.4306 54.2582 36.6446 53.7709 30.3044C53.1699 22.4853 45.6768 16.6088 37.8756 17.8382Z" fill="white"/>
<circle cx="40.2906" cy="31.469" r="14.7808" fill="#FFBDAB"/>
<circle cx="40.5" cy="31.5" r="12.5" fill="#ECE345"/>
</svg>
