<svg width="198" height="195" viewBox="0 0 198 195" fill="none" xmlns="http://www.w3.org/2000/svg">
<path d="M16.3393 42.5893L46.6072 40.9821L49.2857 12.0536L75.5357 23.5714L92.4107 0L110.357 21.1607L135.536 8.83929L144.375 35.0893L172.232 32.1429L168.214 60L192.589 70.4464L178.125 93.4821L197.143 114.643L172.232 126.964L180.268 154.018L151.071 156.696L146.25 183.214L121.071 173.571L103.661 195L83.8393 173.571L60.8036 188.036L52.5 161.518L24.375 163.929L29.1964 136.071L2.14286 126.964L19.5536 101.518L0 81.9643L24.375 68.3036L16.3393 42.5893Z" fill="#ECE345"/>
</svg>
