<svg width="187" height="80" viewBox="0 0 187 80" fill="none" xmlns="http://www.w3.org/2000/svg">
<path d="M72.1339 1H70.3828V36H72.1339V1Z" fill="black"/>
<path d="M75.5954 1H73.7803V36H75.5954V1Z" fill="black"/>
<path d="M84 1H82V36H84V1Z" fill="black"/>
<path d="M88 1H85V36H88V1Z" fill="black"/>
<path d="M95 1H90V36H95V1Z" fill="black"/>
<path d="M99 1H97V36H99V1Z" fill="black"/>
<path d="M104 1H101V36H104V1Z" fill="black"/>
<path d="M111.107 1H108.608V36H111.107V1Z" fill="black"/>
<path d="M118.111 1H116.082V36H118.111V1Z" fill="black"/>
<path d="M124.11 1H120.395V36H124.11V1Z" fill="black"/>
<path d="M131.074 1H125.8V36H131.074V1Z" fill="black"/>
<path d="M137.67 1H132.78V36H137.67V1Z" fill="black"/>
<path d="M141.685 1H139.4V36H141.685V1Z" fill="black"/>
<path d="M146.212 1H144.034V36H146.212V1Z" fill="black"/>
<path d="M149.544 1H147.857V36H149.544V1Z" fill="black"/>
<path d="M153.067 1H150.996V36H153.067V1Z" fill="black"/>
<path d="M161.268 1H154.67V36H161.268V1Z" fill="black"/>
<path d="M165.174 1H162.953V36H165.174V1Z" fill="black"/>
<path d="M172.885 1H170.13V36H172.885V1Z" fill="black"/>
<path d="M176.558 1H174.486V36H176.558V1Z" fill="black"/>
<path d="M185.185 1H181.533V36H185.185V1Z" fill="black"/>
<path d="M46.4883 0.860809H40.7227V70.1009H46.4883V0.860809Z" fill="#E30713"/>
<path d="M64.1057 0.860809H40.7227V6.93672H64.1057V0.860809Z" fill="#E30713"/>
<path d="M64.1057 32.455H40.7227V38.5309H64.1057V32.455Z" fill="#E30713"/>
<path d="M64.1057 64.0244H40.7227V70.1003H64.1057V64.0244Z" fill="#E30713"/>
<path d="M70.7465 69.1138C69.935 68.405 69.3158 67.3923 68.8887 66.0505C68.4616 64.7088 68.248 63.0885 68.248 61.2151V56.3544C68.248 54.4557 68.4616 52.8354 68.8673 51.4937C69.273 50.1519 69.8923 49.1393 70.6824 48.4304C71.4725 47.7215 72.4335 47.3924 73.5226 47.3924C74.4408 47.3924 75.295 47.7215 76.0637 48.4051C76.8325 49.0886 77.4517 50.0253 77.9215 51.2658L77.6012 55.7468C77.6012 54.8101 77.4731 54.0253 77.2382 53.3418C77.0033 52.6582 76.6403 52.1772 76.1918 51.8228C75.7434 51.4684 75.1668 51.3165 74.5262 51.3165C73.5012 51.3165 72.7111 51.7722 72.1559 52.6582C71.6007 53.5443 71.3231 54.7848 71.3231 56.405V61.1898C71.3231 62.7847 71.6007 64.0252 72.1559 64.886C72.7111 65.7467 73.5012 66.1771 74.5262 66.1771C75.1882 66.1771 75.7434 65.9999 76.1918 65.6455C76.6403 65.291 77.0033 64.7594 77.2382 64.1012C77.4731 63.4176 77.6012 62.6075 77.6012 61.6708L77.8148 66.3037C77.4945 67.3923 76.9819 68.3037 76.2773 69.0379C75.5726 69.772 74.697 70.1265 73.6507 70.1265C72.5403 70.1518 71.558 69.8227 70.7465 69.1138ZM77.6226 38.9874H80.6976V69.772H77.6226V38.9874Z" fill="#E30713"/>
<path d="M97.6314 69.4682C96.7773 69.4682 95.9444 69.1644 95.2184 68.6075L94.8767 68.3543C93.9158 67.6202 93.1897 66.5062 92.6986 65.0632C92.2074 63.6202 91.9512 61.8733 91.9512 59.848V57.4177C91.9512 55.2911 92.1861 53.4683 92.6772 51.9747C93.1684 50.481 93.8517 49.3165 94.77 48.5317C95.6882 47.7469 96.7986 47.3418 98.0799 47.3418C99.2971 47.3418 100.322 47.7975 101.198 48.6836C102.052 49.5696 102.714 50.8861 103.162 52.5823C103.611 54.2785 103.846 56.3038 103.846 58.6835V60.1012H94.0439V56.7088H101.134C101.048 54.962 100.749 53.5949 100.215 52.6076C99.6815 51.6456 98.9768 51.1393 98.1012 51.1393C97.0122 51.1393 96.1793 51.6709 95.5814 52.7089C94.9835 53.7468 94.6845 55.2405 94.6845 57.1645V59.8987C94.6845 61.6708 95.0048 63.0379 95.6455 63.9999C96.2861 64.9619 97.183 65.4176 98.3575 65.4176C98.9341 65.4176 99.5106 65.2404 100.087 64.9113C100.664 64.5569 101.176 64.0759 101.625 63.4683L103.504 66.2531C102.778 67.2657 101.966 68.0758 101.069 68.6328C100.173 69.1898 99.2757 69.4682 98.3575 69.4682H97.6314Z" fill="#E30713"/>
<path d="M117.877 69.4685C117.877 69.4685 117.492 69.3419 116.724 69.0887C115.955 68.8356 115.229 68.4558 114.567 67.9748C113.905 67.4685 113.286 66.8609 112.709 66.1014L114.439 63.0128C115.25 63.8989 116.04 64.5571 116.83 65.0128C117.62 65.4432 118.411 65.671 119.179 65.671C120.332 65.671 121.208 65.4179 121.785 64.8862C122.361 64.3799 122.66 63.5951 122.66 62.5571C122.66 61.8736 122.511 61.342 122.19 61.0129C121.87 60.6837 121.486 60.4306 121.016 60.3293C120.546 60.2027 119.884 60.1015 119.03 60.0002C118.944 60.0002 118.88 60.0002 118.795 60.0002C118.71 60.0002 118.624 59.9749 118.56 59.9749C118.517 59.9749 118.475 59.9749 118.453 59.9749C118.411 59.9749 118.368 59.9749 118.347 59.9749C117.386 59.8736 116.553 59.6711 115.891 59.3673C115.229 59.0635 114.652 58.5065 114.225 57.6964C113.777 56.8863 113.563 55.7217 113.563 54.2028C113.563 52.6838 113.777 51.418 114.204 50.4053C114.631 49.3927 115.272 48.6332 116.126 48.1269C116.98 47.6205 118.048 47.3674 119.329 47.3674C120.098 47.3674 120.845 47.4686 121.55 47.6712C122.254 47.8737 122.938 48.1775 123.578 48.5825C124.219 48.9876 124.838 49.4939 125.436 50.1269L123.664 53.2154C122.916 52.5319 122.19 52.0003 121.464 51.6711C120.738 51.3167 120.034 51.1648 119.35 51.1648C118.347 51.1648 117.599 51.418 117.108 51.899C116.617 52.38 116.361 53.1142 116.361 54.1015C116.361 54.6838 116.51 55.1142 116.788 55.4179C117.065 55.6964 117.428 55.899 117.855 56.0002C118.282 56.1015 118.902 56.1774 119.692 56.2534C119.756 56.2787 119.799 56.2787 119.863 56.2787C119.927 56.2787 119.991 56.2787 120.055 56.304C120.076 56.304 120.119 56.304 120.14 56.304C120.162 56.304 120.204 56.304 120.226 56.3293C121.272 56.4306 122.169 56.6331 122.895 56.9369C123.621 57.2407 124.24 57.8483 124.731 58.7344C125.223 59.6205 125.479 60.9369 125.479 62.6331C125.479 64.1774 125.244 65.4685 124.796 66.4812C124.347 67.4938 123.642 68.2533 122.724 68.7596C121.806 69.266 120.631 69.5191 119.243 69.5191C118.325 69.4685 117.877 69.4685 117.877 69.4685Z" fill="#E30713"/>
<path d="M137.095 38.9874H140.682V43.2912H137.095V38.9874ZM137.095 47.7722H140.682V69.6708H137.095V47.7722Z" fill="#E30713"/>
<path d="M154.54 69.9242C153.75 69.19 153.173 68.1267 152.746 66.709C152.341 65.2913 152.127 63.6204 152.127 61.6457V56.5572C152.127 54.5825 152.319 52.8863 152.725 51.4686C153.131 50.0509 153.707 48.9876 154.455 48.2534C155.223 47.5193 156.142 47.1648 157.188 47.1648C158.085 47.1648 158.896 47.5193 159.644 48.2281C160.391 48.937 160.989 49.9496 161.437 51.2407L161.138 55.9496C161.138 54.9622 161.032 54.1268 160.797 53.4433C160.562 52.7344 160.22 52.2281 159.793 51.8483C159.366 51.4686 158.811 51.2914 158.192 51.2914C157.209 51.2914 156.462 51.7471 155.907 52.6838C155.351 53.6205 155.095 54.9369 155.095 56.6078V61.6204C155.095 63.2913 155.373 64.5824 155.907 65.4938C156.441 66.4052 157.209 66.8609 158.192 66.8609C158.832 66.8609 159.366 66.6837 159.793 66.3039C160.242 65.9242 160.562 65.3925 160.797 64.6584C161.032 63.9242 161.138 63.0888 161.138 62.1014L161.352 66.9622C161.053 68.1014 160.562 69.0634 159.879 69.8229C159.195 70.5824 158.362 70.9874 157.359 70.9874C156.27 71.0128 155.309 70.6583 154.54 69.9242ZM157.167 80C156.376 80 155.586 79.7469 154.903 79.2406L154.604 79.0127C153.707 78.3798 153.002 77.4684 152.511 76.2785L154.519 73.4938C154.903 74.3039 155.373 74.9368 155.907 75.3925C156.441 75.8482 157.017 76.0507 157.594 76.0507C158.725 76.0507 159.601 75.5697 160.22 74.6077C160.84 73.6457 161.16 72.3039 161.16 70.5571V47.4939H164.128V69.8735C164.128 72.0001 163.872 73.7976 163.359 75.3165C162.847 76.8355 162.099 77.9747 161.138 78.7595C160.178 79.5443 159.003 79.9494 157.636 79.9494H157.167V80Z" fill="#E30713"/>
<path d="M175.062 47.4682H177.988V69.6706H175.062V47.4682ZM184.074 56.2023C184.074 54.6327 183.796 53.4175 183.263 52.5567C182.729 51.696 181.96 51.2656 180.978 51.2656C180.017 51.2656 179.291 51.6454 178.778 52.4048C178.266 53.1643 177.988 54.2276 177.988 55.5947L177.689 51.3163C178.138 49.9745 178.735 48.9365 179.483 48.2023C180.23 47.4682 181.042 47.1137 181.939 47.1137C183.54 47.1137 184.8 47.8985 185.676 49.4682C186.551 51.0378 187 53.2656 187 56.1517V69.6452H184.074V56.2023Z" fill="#E30713"/>
<path d="M0 0.860809H5.87245V70.1262H0V0.860809ZM2.56252 31.6201H16.8486C17.959 31.6201 18.9413 31.1644 19.8168 30.2783C20.671 29.3923 21.3544 28.1265 21.8241 26.5062C22.2939 24.8607 22.5288 22.9872 22.5288 20.8607C22.5288 18.7341 22.2939 16.8607 21.8241 15.2151C21.3544 13.5696 20.6924 12.3291 19.8382 11.443C18.984 10.557 17.9804 10.1013 16.8486 10.1013H2.56252V0.860809H16.635C19.0481 0.860809 21.1835 1.69626 23.02 3.34182C24.8565 4.98738 26.2659 7.34178 27.2909 10.3544C28.2945 13.3924 28.807 16.886 28.807 20.8607C28.807 24.8353 28.2945 28.329 27.2695 31.3669C26.2445 34.4049 24.8351 36.734 22.9986 38.3795C21.1622 40.0251 19.0481 40.8605 16.6564 40.8605H2.60523V31.6201H2.56252ZM13.9871 38.7087L19.8382 36.5315L30.5581 70.1515H23.5752L13.9871 38.7087Z" fill="#E30713"/>
</svg>
