<svg width="40" height="40" viewBox="0 0 40 40" fill="none" xmlns="http://www.w3.org/2000/svg">
<path fill-rule="evenodd" clip-rule="evenodd" d="M15 0C6.71875 0 0 6.71582 0 15V25C0 32.8418 6.02035 39.2783 13.6875 39.9433V39.9688H14.0242C14.3468 39.9895 14.6722 40 15 40H25C33.2812 40 40 33.2842 40 25V15C40 6.71582 33.2812 0 25 0H15ZM16.0312 37H20.7188V25.75H26.7573L27.5385 21.0625H20.7188V16.375C20.7188 15.0826 21.7701 14.0312 23.0625 14.0312H27.75V9.34375H21.8906C18.6597 9.34375 16.0312 11.9722 16.0312 15.2031V21.0625H11.3438V25.75H16.0312V37ZM23.0625 37H25C31.625 37 37 31.6274 37 25V15C37 8.37256 31.625 3 25 3H15C8.375 3 3 8.37256 3 15V25C3 31.1838 7.67942 36.275 13.6875 36.929V28.0938H9V18.7188H13.6875V15.2031C13.6875 10.6798 17.3673 7 21.8906 7H30.0938V16.375H23.0625V18.7188H30.3052L28.7427 28.0938H23.0625V37Z" fill="#E30713"/>
</svg>
