<svg width="40" height="40" viewBox="0 0 40 40" fill="none" xmlns="http://www.w3.org/2000/svg">
<path d="M20 29C24.9625 29 29 24.9625 29 20C29 15.0375 24.9625 11 20 11C15.0375 11 11 15.0375 11 20C11 24.9625 15.0375 29 20 29ZM20 13C23.8599 13 27 16.1401 27 20C27 23.8599 23.8599 27 20 27C16.1401 27 13 23.8599 13 20C13 16.1401 16.1401 13 20 13Z" fill="#E30713"/>
<path d="M29 12C30.6542 12 32 10.6542 32 9C32 7.34583 30.6542 6 29 6C27.3458 6 26 7.34583 26 9C26 10.6542 27.3458 12 29 12ZM29 8C29.5513 8 30 8.4487 30 9C30 9.5513 29.5513 10 29 10C28.4487 10 28 9.5513 28 9C28 8.4487 28.4487 8 29 8Z" fill="#E30713"/>
<path fill-rule="evenodd" clip-rule="evenodd" d="M0 15C0 6.71582 6.71875 0 15 0H25C33.2812 0 40 6.71582 40 15V25C40 33.2842 33.2812 40 25 40H15C6.71875 40 0 33.2842 0 25V15ZM15 3H25C31.625 3 37 8.37256 37 15V25C37 31.6274 31.625 37 25 37H15C8.375 37 3 31.6274 3 25V15C3 8.37256 8.375 3 15 3Z" fill="#E30713"/>
</svg>
