<svg width="247" height="284" viewBox="0 0 247 284" fill="none" xmlns="http://www.w3.org/2000/svg">
<g filter="url(#filter0_d_265_5172)">
<path fill-rule="evenodd" clip-rule="evenodd" d="M150.616 39.2384C179.096 46.5162 217.836 21.25 237.04 43.4404C256.036 65.3911 235.904 101.122 229.46 130.344C224.678 152.026 212.278 169.735 204.58 190.633C193.575 220.506 203.895 266.82 174.755 278.847C145.662 290.855 123.544 249.344 96.2485 235.346C76.8836 225.414 53.6611 224.295 38.292 208.86C21.76 192.257 12.7562 170.087 8.01191 146.731C2.47471 119.471 -2.58098 90.541 9.00491 64.6782C21.5743 36.6198 43.361 6.86945 73.0558 1.53491C102.57 -3.76713 121.967 31.9173 150.616 39.2384Z" fill="#CFE9FD" fill-opacity="0.8" shape-rendering="crispEdges"/>
</g>
<defs>
<filter id="filter0_d_265_5172" x="0" y="0" width="247" height="284" filterUnits="userSpaceOnUse" color-interpolation-filters="sRGB">
<feFlood flood-opacity="0" result="BackgroundImageFix"/>
<feColorMatrix in="SourceAlpha" type="matrix" values="0 0 0 0 0 0 0 0 0 0 0 0 0 0 0 0 0 0 127 0" result="hardAlpha"/>
<feOffset dy="1"/>
<feGaussianBlur stdDeviation="1"/>
<feComposite in2="hardAlpha" operator="out"/>
<feColorMatrix type="matrix" values="0 0 0 0 0 0 0 0 0 0 0 0 0 0 0 0 0 0 0.15 0"/>
<feBlend mode="normal" in2="BackgroundImageFix" result="effect1_dropShadow_265_5172"/>
<feBlend mode="normal" in="SourceGraphic" in2="effect1_dropShadow_265_5172" result="shape"/>
</filter>
</defs>
</svg>
