<svg width="267" height="267" viewBox="0 0 267 267" fill="none" xmlns="http://www.w3.org/2000/svg">
<g filter="url(#filter0_d_265_5173)">
<path fill-rule="evenodd" clip-rule="evenodd" d="M126.25 5.96318C151.214 7.1854 175.98 6.41167 198.515 19.0331C224.793 33.751 256.966 49.9556 263.894 83.0541C270.827 116.177 243.379 144.254 231.213 175.245C220.849 201.646 219.772 236.867 198.014 250.878C176.435 264.774 150.843 241.181 126.25 242.835C99.1141 244.661 73.3099 273.202 48.2261 260.957C22.5957 248.445 6.4812 214.542 2.45187 182.403C-1.34204 152.143 19.7713 127.055 27.7883 97.9433C35.8364 68.7189 28.94 30.8967 49.452 11.7351C69.998 -7.45837 99.9776 4.67688 126.25 5.96318Z" fill="white" fill-opacity="0.8" shape-rendering="crispEdges"/>
</g>
<defs>
<filter id="filter0_d_265_5173" x="0" y="0" width="267" height="267" filterUnits="userSpaceOnUse" color-interpolation-filters="sRGB">
<feFlood flood-opacity="0" result="BackgroundImageFix"/>
<feColorMatrix in="SourceAlpha" type="matrix" values="0 0 0 0 0 0 0 0 0 0 0 0 0 0 0 0 0 0 127 0" result="hardAlpha"/>
<feOffset dy="1"/>
<feGaussianBlur stdDeviation="1"/>
<feComposite in2="hardAlpha" operator="out"/>
<feColorMatrix type="matrix" values="0 0 0 0 0 0 0 0 0 0 0 0 0 0 0 0 0 0 0.15 0"/>
<feBlend mode="normal" in2="BackgroundImageFix" result="effect1_dropShadow_265_5173"/>
<feBlend mode="normal" in="SourceGraphic" in2="effect1_dropShadow_265_5173" result="shape"/>
</filter>
</defs>
</svg>
