<svg width="331" height="304" viewBox="0 0 331 304" fill="none" xmlns="http://www.w3.org/2000/svg">
<g filter="url(#filter0_d_265_5166)">
<path fill-rule="evenodd" clip-rule="evenodd" d="M262.198 8.81168C295.398 22.2824 311.469 53.7875 322.95 82.7395C332.686 107.294 329.564 133.304 321.402 158.114C314.337 179.591 292.56 193.79 279.956 213.434C261.439 242.294 268.557 290.719 230.458 299.854C193.36 308.749 169.691 263.432 135.594 248.046C105.885 234.641 67.477 236.469 44.4987 215.942C18.7625 192.95 -5.73804 160.699 4.30464 130.759C14.386 100.704 64.3801 96.477 91.7601 75.0428C115.65 56.3405 123.641 25.5734 153.479 13.9785C187.034 0.939223 228.681 -4.78762 262.198 8.81168Z" fill="#FFBDAB" fill-opacity="0.3" shape-rendering="crispEdges"/>
</g>
<defs>
<filter id="filter0_d_265_5166" x="0" y="0" width="331" height="304" filterUnits="userSpaceOnUse" color-interpolation-filters="sRGB">
<feFlood flood-opacity="0" result="BackgroundImageFix"/>
<feColorMatrix in="SourceAlpha" type="matrix" values="0 0 0 0 0 0 0 0 0 0 0 0 0 0 0 0 0 0 127 0" result="hardAlpha"/>
<feOffset dy="1"/>
<feGaussianBlur stdDeviation="1"/>
<feComposite in2="hardAlpha" operator="out"/>
<feColorMatrix type="matrix" values="0 0 0 0 0 0 0 0 0 0 0 0 0 0 0 0 0 0 0.15 0"/>
<feBlend mode="normal" in2="BackgroundImageFix" result="effect1_dropShadow_265_5166"/>
<feBlend mode="normal" in="SourceGraphic" in2="effect1_dropShadow_265_5166" result="shape"/>
</filter>
</defs>
</svg>
